<svg width="12" height="11" viewBox="0 0 12 11" fill="none" xmlns="http://www.w3.org/2000/svg">
<path d="M11.0285 4.84475C11.0304 5.5864 10.8571 6.31801 10.5228 6.98001C10.1263 7.77329 9.51679 8.44052 8.76254 8.90696C8.00828 9.37341 7.13906 9.62065 6.25222 9.621C5.51057 9.62293 4.77896 9.44965 4.11696 9.11528L0.914062 10.1829L1.98169 6.98001C1.64732 6.31801 1.47404 5.5864 1.47597 4.84475C1.47632 3.95791 1.72356 3.08869 2.19001 2.33443C2.65645 1.58018 3.32368 0.970684 4.11696 0.574218C4.77896 0.239842 5.51057 0.0665638 6.25222 0.0684975H6.53318C7.7044 0.133113 8.81063 0.627465 9.64007 1.4569C10.4695 2.28634 10.9639 3.39257 11.0285 4.56379V4.84475Z" fill="#8A8FB9"/>
</svg>
