<svg width="20" height="10" viewBox="0 0 20 10" fill="none" xmlns="http://www.w3.org/2000/svg">
<path d="M4.90215 0.825452L1.13398 4.57544C1.13376 4.57566 1.13358 4.57591 1.13333 4.57613C0.850927 4.85803 0.851829 5.3161 1.1334 5.59706C1.13362 5.59728 1.1338 5.59753 1.13405 5.59775L4.90223 9.34774C5.18452 9.62867 5.64116 9.62762 5.92212 9.34529C6.20308 9.063 6.202 8.6064 5.9197 8.32544L3.38975 5.80775L18.6623 5.80775C19.0606 5.80775 19.3834 5.48489 19.3834 5.0866C19.3834 4.6883 19.0606 4.36544 18.6623 4.36544L3.38975 4.36544L5.91963 1.84776C6.20192 1.5668 6.20301 1.1102 5.92205 0.827904C5.64105 0.545536 5.18441 0.544563 4.90215 0.825452Z" fill="#8A8FB9"/>
</svg>
