<svg width="19" height="10" viewBox="0 0 19 10" fill="none" xmlns="http://www.w3.org/2000/svg">
<path d="M14.635 9.1942L18.4031 5.44421C18.4033 5.44399 18.4035 5.44374 18.4038 5.44352C18.6862 5.16163 18.6853 4.70355 18.4037 4.42259C18.4035 4.42237 18.4033 4.42212 18.4031 4.4219L14.6349 0.671911C14.3526 0.390986 13.896 0.392032 13.615 0.674363C13.334 0.956658 13.3351 1.41326 13.6174 1.69422L16.1474 4.2119L0.874836 4.2119C0.476543 4.2119 0.153683 4.53476 0.153683 4.93306C0.153683 5.33135 0.476543 5.65421 0.874836 5.65421L16.1474 5.65421L13.6175 8.1719C13.3352 8.45286 13.3341 8.90945 13.6151 9.19175C13.8961 9.47412 14.3527 9.47509 14.635 9.1942Z" fill="#8A8FB9"/>
</svg>
